<svg width="24" height="24" viewBox="0 0 24 24" fill="none" xmlns="http://www.w3.org/2000/svg">
<g clip-path="url(#clip0_2001_2486)">
<path d="M22.43 1.94C22.43 2.24 22.43 2.6 22.48 3C22.53 3.4 22.48 4.62 22.48 6.22M22.48 10.87C22.48 13.54 22.48 15.99 22.48 16.55M1.53 16.55C1.53 15.99 1.53 13.55 1.53 10.87M1.53 6.22C1.53 4.62 1.53 3.38 1.53 3C1.53 2.62 1.53 2.24 1.53 1.94" stroke="black" stroke-width="2" stroke-linecap="round" stroke-linejoin="round"/>
<path d="M16.11 16.55C15.9637 16.4268 15.8453 16.274 15.7626 16.1016C15.6798 15.9292 15.6346 15.7412 15.63 15.55C15.6326 15.077 15.8224 14.6243 16.1578 14.2907C16.4932 13.9572 16.947 13.77 17.42 13.77H18.93C19.403 13.77 19.8568 13.9572 20.1922 14.2907C20.5276 14.6243 20.7174 15.077 20.72 15.55C20.7154 15.7402 20.6712 15.9273 20.5903 16.0995C20.5094 16.2717 20.3935 16.4251 20.25 16.55H16.11Z" stroke="black" stroke-width="2" stroke-linecap="round" stroke-linejoin="round"/>
<path d="M16.11 6.22001C15.9637 6.09683 15.8453 5.94398 15.7626 5.77158C15.6798 5.59919 15.6346 5.41118 15.63 5.22001C15.626 4.98243 15.6694 4.74644 15.7576 4.52579C15.8457 4.30514 15.9769 4.10426 16.1436 3.93485C16.3102 3.76544 16.5089 3.6309 16.728 3.53908C16.9472 3.44725 17.1824 3.39998 17.42 3.40001H18.93C19.4047 3.40001 19.86 3.5886 20.1957 3.92429C20.5314 4.25998 20.72 4.71527 20.72 5.19001C20.7154 5.38019 20.6712 5.56732 20.5903 5.73949C20.5094 5.91166 20.3935 6.06509 20.25 6.19001L16.11 6.22001Z" stroke="black" stroke-width="2" stroke-linecap="round" stroke-linejoin="round"/>
<path d="M1.53 16.55H22.47C22.47 16.96 22.47 17.32 22.47 17.61C22.5129 18.7973 22.2909 19.9792 21.82 21.07C21.4 21.51 19.68 21.75 17.89 21.88L17.04 21.94C14.47 22.06 10.04 22.06 10.04 22.06H9.26C8.7 22 7.89 22 7 22L6.15 21.94C4.42 21.81 2.66 21.57 2.21 21.1C1.7391 20.0092 1.51706 18.8273 1.56 17.64C1.55 17.32 1.54 17 1.53 16.55Z" stroke="black" stroke-width="2" stroke-linecap="round" stroke-linejoin="round"/>
<path d="M1.5 6.22H22.5V10.87C20.9808 11.2723 19.4208 11.5004 17.85 11.55H17C14.43 11.67 10 11.67 10 11.67H9.26C8.7 11.67 7.88 11.67 7.01 11.59L6.16 11.54C4.58367 11.4926 3.01891 11.2542 1.5 10.83V6.22Z" stroke="black" stroke-width="2" stroke-linecap="round" stroke-linejoin="round"/>
</g>
<defs>
<clipPath id="clip0_2001_2486">
<rect width="24" height="24" fill="white"/>
</clipPath>
</defs>
</svg>
